<svg width="18" height="24" viewBox="0 0 18 24" fill="none" xmlns="http://www.w3.org/2000/svg">
<path d="M11.5523 12.7774C13.8132 11.9735 15.694 10.4932 17 8.61228V20C17 21.6569 15.6569 23 14 23H3.34972C2.6734 23 2.12515 22.4517 2.12515 21.7754C2.12515 18.3904 4.25563 15.3717 7.44507 14.2377L11.5523 12.7774ZM6.37304 11.2226C4.15478 12.0113 2.30251 13.4511 1 15.2815V3.99999C1 2.34314 2.34314 1 4 1H14.5756C15.2519 1 15.8001 1.54826 15.8001 2.22457C15.8001 5.60962 13.6697 8.62827 10.4802 9.76229L6.37304 11.2226Z" stroke="white" stroke-width="2"/>
</svg>
