<svg width="20" height="20" viewBox="0 0 20 20" fill="none" xmlns="http://www.w3.org/2000/svg">
<path d="M10.0003 18.3334C6.66121 18.3334 4.99165 18.3334 3.95433 17.235C2.91699 16.1367 2.91699 14.3689 2.91699 10.8334C2.91699 7.29784 2.91699 5.53007 3.95433 4.43172C4.99165 3.33337 6.66121 3.33337 10.0003 3.33337C13.3394 3.33337 15.009 3.33337 16.0463 4.43172C17.0837 5.53007 17.0837 7.29784 17.0837 10.8334C17.0837 14.3689 17.0837 16.1367 16.0463 17.235C15.009 18.3334 13.3394 18.3334 10.0003 18.3334Z" stroke="white" stroke-width="1.5" stroke-linecap="round" stroke-linejoin="round"/>
<path d="M6.66699 3.33329V1.66663" stroke="white" stroke-width="1.5" stroke-linecap="round"/>
<path d="M13.333 3.33329V1.66663" stroke="white" stroke-width="1.5" stroke-linecap="round"/>
<path d="M11.6819 7.9105C11.6819 8.831 10.9357 9.57716 10.0153 9.57716C9.0948 9.57716 8.34863 8.831 8.34863 7.9105C8.34863 6.99006 9.0948 6.2439 10.0153 6.2439C10.9357 6.2439 11.6819 6.99006 11.6819 7.9105Z" stroke="white" stroke-width="1.5" stroke-linecap="round" stroke-linejoin="round"/>
<path d="M6.71947 13.93C7.60143 12.5723 9.00199 12.0635 10.0154 12.0645C11.0287 12.0655 12.3883 12.5723 13.2702 13.93C13.3272 14.0179 13.343 14.126 13.2915 14.2172C13.0852 14.583 12.4448 15.3087 11.9823 15.358C11.4508 15.4145 10.0606 15.4224 10.0165 15.4226C9.97233 15.4224 8.53916 15.4145 8.00742 15.358C7.54487 15.3087 6.90446 14.583 6.6982 14.2172C6.64674 14.126 6.66246 14.0179 6.71947 13.93Z" stroke="white" stroke-width="1.5" stroke-linecap="round" stroke-linejoin="round"/>
</svg>
