<svg width="20" height="20" viewBox="0 0 20 20" fill="none" xmlns="http://www.w3.org/2000/svg">
<path d="M2.08301 10C2.08301 6.26809 2.08301 4.40212 3.24237 3.24274C4.40175 2.08337 6.26772 2.08337 9.99967 2.08337C13.7316 2.08337 15.5976 2.08337 16.757 3.24274C17.9163 4.40212 17.9163 6.26809 17.9163 10C17.9163 13.732 17.9163 15.598 16.757 16.7574C15.5976 17.9167 13.7316 17.9167 9.99967 17.9167C6.26772 17.9167 4.40175 17.9167 3.24237 16.7574C2.08301 15.598 2.08301 13.732 2.08301 10Z" stroke="white" stroke-width="1.5"/>
<path d="M13.75 7.5C14.4404 7.5 15 6.94036 15 6.25C15 5.55964 14.4404 5 13.75 5C13.0596 5 12.5 5.55964 12.5 6.25C12.5 6.94036 13.0596 7.5 13.75 7.5Z" stroke="white" stroke-width="1.5"/>
<path d="M13.3333 18.3333C12.8171 16.479 11.6121 14.8184 9.89708 13.6118C8.04801 12.3107 5.72636 11.6221 3.34641 11.6689C3.06382 11.6682 2.78147 11.6772 2.5 11.6959" stroke="white" stroke-width="1.5" stroke-linejoin="round"/>
<path d="M10.833 15C12.2509 13.8944 13.7784 13.3273 15.3215 13.3334C16.1965 13.3325 17.0673 13.518 17.9163 13.8848" stroke="white" stroke-width="1.5" stroke-linejoin="round"/>
</svg>
