<svg width="467" height="537" viewBox="0 0 467 537" fill="none" xmlns="http://www.w3.org/2000/svg">
<path d="M151.5 531.5L84.5 532.5V494.5H151.5L152.5 517H181.5V536.5H151.5V531.5Z" fill="white" stroke="#2A66C0"/>
<path d="M71.5 396L80 532.5H33L24 396H71.5Z" fill="white" stroke="#2A66C0"/>
<path d="M222.5 385L33.5 391.5L28 280.5H17L1 18L222.5 9V385Z" fill="white" stroke="#2A66C0"/>
<path d="M466.5 162L223 169.5V9.5L466.5 1V162Z" fill="white" stroke="#2A66C0"/>
<path d="M103.512 220H85.936L113.392 143.04H129.824L157.176 220H139.288L133.88 203.776H109.024L103.512 220ZM119.424 173.2L113.912 189.632H129.096L123.584 173.2C123.168 171.883 122.752 170.531 122.336 169.144C121.92 167.757 121.643 166.613 121.504 165.712C121.365 166.613 121.088 167.757 120.672 169.144C120.325 170.461 119.909 171.813 119.424 173.2Z" fill="#2A66C0"/>
<path d="M315.356 46.04V123H298.508V46.04H315.356ZM329.604 91.696H309.948V77.552H328.772C331.823 77.552 334.145 76.824 335.74 75.368C337.335 73.912 338.132 71.7973 338.132 69.024C338.132 66.32 337.335 64.2747 335.74 62.888C334.145 61.5013 331.823 60.808 328.772 60.808H311.092V46.04H330.54C338.305 46.04 344.372 47.9467 348.74 51.76C353.177 55.5733 355.396 60.7733 355.396 67.36C355.396 71.8667 354.287 75.68 352.068 78.8C349.849 81.92 346.625 84.1387 342.396 85.456V84C346.903 84.9707 350.335 86.9813 352.692 90.032C355.119 93.0827 356.332 97 356.332 101.784C356.332 106.291 355.327 110.139 353.316 113.328C351.375 116.517 348.463 118.944 344.58 120.608C340.767 122.203 336.087 123 330.54 123H311.092V108.232H329.604C332.724 108.232 335.081 107.539 336.676 106.152C338.271 104.696 339.068 102.547 339.068 99.704C339.068 97.0693 338.236 95.0933 336.572 93.776C334.977 92.3893 332.655 91.696 329.604 91.696Z" fill="#2A66C0"/>
<path d="M138.668 495H108.508V418.04H137.628C145.185 418.04 151.807 419.669 157.492 422.928C163.247 426.187 167.753 430.728 171.012 436.552C174.271 442.376 175.9 449.101 175.9 456.728C175.9 464.216 174.305 470.837 171.116 476.592C167.996 482.347 163.628 486.853 158.012 490.112C152.465 493.371 146.017 495 138.668 495ZM125.356 425.736V487.512L117.348 479.4H137.004C141.441 479.4 145.22 478.499 148.34 476.696C151.529 474.893 153.956 472.293 155.62 468.896C157.284 465.499 158.116 461.443 158.116 456.728C158.116 451.875 157.215 447.749 155.412 444.352C153.679 440.885 151.148 438.251 147.82 436.448C144.561 434.576 140.609 433.64 135.964 433.64H117.348L125.356 425.736Z" fill="#2A66C0"/>
<path d="M226 172.12L226.001 447L352.281 444.958L344.482 170.052L226 172.12Z" fill="white" stroke="#2A66C0"/>
<path d="M286.288 346.248C278.592 346.248 271.936 344.653 266.32 341.464C260.704 338.205 256.371 333.629 253.32 327.736C250.269 321.773 248.744 314.736 248.744 306.624C248.744 298.581 250.339 291.579 253.528 285.616C256.717 279.653 261.189 275.043 266.944 271.784C272.699 268.456 279.389 266.792 287.016 266.792C293.464 266.792 299.184 267.971 304.176 270.328C309.237 272.616 313.363 275.875 316.552 280.104C319.741 284.333 321.717 289.325 322.48 295.08H304.696C303.587 291.197 301.437 288.216 298.248 286.136C295.128 284.056 291.245 283.016 286.6 283.016C282.44 283.016 278.835 283.952 275.784 285.824C272.803 287.696 270.515 290.4 268.92 293.936C267.325 297.403 266.528 301.597 266.528 306.52C266.528 311.304 267.325 315.464 268.92 319C270.584 322.536 272.907 325.275 275.888 327.216C278.939 329.088 282.509 330.024 286.6 330.024C291.315 330.024 295.301 328.949 298.56 326.8C301.888 324.581 304.072 321.565 305.112 317.752H322.584C321.683 323.437 319.568 328.429 316.24 332.728C312.981 337.027 308.787 340.355 303.656 342.712C298.525 345.069 292.736 346.248 286.288 346.248Z" fill="#2A66C0"/>
</svg>
