<svg width="1920" height="290" viewBox="0 0 1920 290" fill="none" xmlns="http://www.w3.org/2000/svg">
<path d="M1996.37 160.75C1034.28 68.8288 711.121 1.53995 -25.707 61.9284L-24.0682 127.908C489.499 58.4717 1063.48 105.014 1998.32 239.226L1996.37 160.75Z" fill="white" stroke="#2A66C0"/>
<path d="M843.432 82.5386L838.673 82.0955L840.013 67.6978L844.693 68.1335C846.127 68.267 847.353 68.6891 848.371 69.3999C849.404 70.0987 850.169 71.0202 850.665 72.1645C851.176 73.2967 851.364 74.5797 851.231 76.0135C851.098 77.434 850.683 78.6607 849.984 79.6938C849.287 80.7135 848.372 81.4786 847.24 81.9892C846.122 82.4877 844.853 82.6709 843.432 82.5386ZM841.88 68.7955L840.708 81.3811L839.877 80.3797L843.461 80.7135C844.537 80.8136 845.48 80.6804 846.291 80.314C847.115 79.9489 847.776 79.3878 848.275 78.6308C848.789 77.8617 849.097 76.9262 849.199 75.8243C849.303 74.7092 849.174 73.7263 848.811 72.8757C848.462 72.0263 847.909 71.3454 847.153 70.8332C846.411 70.3221 845.489 70.0153 844.387 69.9127L840.882 69.5864L841.88 68.7955ZM854.599 83.5582L852.727 83.384L854.09 68.7473L855.962 68.9215L855.365 75.3338C855.72 74.8312 856.198 74.4472 856.798 74.1817C857.4 73.9029 858.079 73.7988 858.836 73.8693C860.07 73.9842 860.959 74.4352 861.502 75.2222C862.045 76.0093 862.258 77.0268 862.142 78.2747L861.587 84.2289L859.715 84.0547L860.231 78.5186C860.293 77.8548 860.242 77.3145 860.08 76.8977C859.933 76.4688 859.689 76.1448 859.347 75.9255C859.019 75.7075 858.623 75.5769 858.159 75.5336C857.561 75.478 857.038 75.5632 856.588 75.7892C856.152 76.0164 855.806 76.3458 855.552 76.7774C855.298 77.209 855.144 77.7036 855.093 78.2612L854.599 83.5582ZM867.005 84.9744C865.97 84.878 865.179 84.5298 864.632 83.9299C864.099 83.3312 863.873 82.5938 863.954 81.7175C864.037 80.8281 864.422 80.1475 865.108 79.6758C865.796 79.1908 866.715 78.955 867.866 78.9683L870.955 79.0149L870.981 78.7361C871.031 78.1918 870.972 77.7511 870.803 77.4139C870.634 77.0635 870.384 76.8058 870.051 76.6409C869.719 76.4627 869.335 76.3532 868.897 76.3124C868.113 76.2395 867.487 76.3486 867.018 76.6397C866.564 76.9188 866.309 77.357 866.253 77.9544L864.62 77.8024C864.683 77.1253 864.911 76.5506 865.303 76.0783C865.695 75.6059 866.216 75.2594 866.866 75.0387C867.529 74.8192 868.279 74.7485 869.115 74.8263C869.925 74.9017 870.615 75.1133 871.185 75.461C871.77 75.7966 872.201 76.272 872.479 76.887C872.771 77.49 872.876 78.2296 872.794 79.1058L872.225 85.2194L870.632 85.0711L870.579 83.4793C870.275 84.0134 869.796 84.4174 869.141 84.6912C868.5 84.9529 867.789 85.0474 867.005 84.9744ZM867.678 83.5708C868.568 83.6536 869.29 83.453 869.844 82.9689C870.399 82.4716 870.719 81.7649 870.804 80.8488L870.852 80.3311L868.345 80.2985C867.514 80.3015 866.899 80.4383 866.499 80.7091C866.112 80.9811 865.896 81.356 865.852 81.8339C865.803 82.3517 865.939 82.7594 866.26 83.0571C866.595 83.3427 867.068 83.5139 867.678 83.5708ZM876.729 85.6387L874.857 85.4645L876.222 70.8078L878.094 70.9821L877.209 80.481L881.957 76.3032L884.307 76.522L880.222 80.0585L883.38 86.258L881.23 86.0578L878.801 81.2921L876.987 82.8707L876.729 85.6387ZM887.542 86.8865C886.506 86.79 885.715 86.4419 885.168 85.8419C884.635 85.2432 884.409 84.5058 884.49 83.6296C884.573 82.7401 884.958 82.0595 885.645 81.5878C886.333 81.1028 887.252 80.867 888.402 80.8804L891.491 80.9269L891.517 80.6481C891.568 80.1038 891.508 79.6631 891.339 79.3259C891.171 78.9755 890.92 78.7178 890.587 78.5529C890.256 78.3747 889.871 78.2653 889.433 78.2245C888.649 78.1515 888.023 78.2606 887.554 78.5517C887.1 78.8308 886.845 79.2691 886.789 79.8665L885.156 79.7144C885.219 79.0374 885.447 78.4627 885.839 77.9903C886.231 77.518 886.752 77.1714 887.402 76.9507C888.065 76.7313 888.815 76.6605 889.651 76.7383C890.461 76.8137 891.151 77.0253 891.721 77.373C892.306 77.7086 892.737 78.184 893.015 78.799C893.307 79.402 893.412 80.1416 893.331 81.0178L892.761 87.1314L891.168 86.9831L891.116 85.3913C890.811 85.9254 890.332 86.3294 889.677 86.6032C889.037 86.865 888.325 86.9594 887.542 86.8865ZM888.215 85.4828C889.104 85.5656 889.826 85.365 890.38 84.8809C890.935 84.3836 891.255 83.6769 891.34 82.7609L891.389 82.2431L888.881 82.2105C888.05 82.2135 887.435 82.3504 887.035 82.6211C886.648 82.8931 886.432 83.268 886.388 83.746C886.34 84.2637 886.476 84.6714 886.796 84.9691C887.131 85.2547 887.604 85.4259 888.215 85.4828ZM895.668 82.9227L895.823 81.2499L901.897 81.8154L901.741 83.4882L895.668 82.9227ZM904.06 77.5777C904.137 76.7546 904.41 76.0503 904.88 75.4646C905.35 74.879 905.972 74.4482 906.748 74.1722C907.537 73.8975 908.422 73.8059 909.405 73.8973C910.321 73.9826 911.102 74.2227 911.748 74.6177C912.409 75.0006 912.904 75.5086 913.233 76.1419C913.576 76.7764 913.735 77.5143 913.71 78.3556L911.738 78.1721C911.752 77.4502 911.538 76.8679 911.098 76.4252C910.657 75.9824 910.031 75.7233 909.222 75.6479C908.319 75.5638 907.576 75.7089 906.992 76.083C906.409 76.4439 906.084 76.9828 906.018 77.6997C905.963 78.2838 906.085 78.7706 906.384 79.1599C906.684 79.536 907.165 79.8352 907.827 80.0576L910.145 80.8358C911.301 81.2113 912.142 81.7515 912.665 82.4564C913.203 83.1493 913.425 84.0002 913.331 85.0092C913.251 85.8721 912.969 86.6025 912.485 87.2001C912.014 87.7991 911.377 88.2353 910.575 88.5088C909.786 88.7835 908.881 88.8732 907.859 88.7781C906.889 88.6878 906.048 88.4488 905.334 88.061C904.635 87.6611 904.101 87.1427 903.731 86.5057C903.377 85.8567 903.211 85.1248 903.233 84.31L905.224 84.4954C905.173 85.187 905.401 85.7639 905.907 86.2261C906.414 86.6751 907.119 86.9416 908.022 87.0256C908.978 87.1146 909.754 86.9727 910.351 86.5998C910.962 86.2281 911.3 85.6904 911.365 84.9868C911.418 84.416 911.302 83.9365 911.017 83.5483C910.732 83.1602 910.251 82.8544 909.576 82.6308L907.256 81.8725C906.113 81.4982 905.266 80.9507 904.717 80.2301C904.183 79.4974 903.964 78.6133 904.06 77.5777ZM916.776 79.545L919.318 89.3429L918.015 90.8285L914.804 79.3614L916.776 79.545ZM913.751 93.4846L913.893 91.9512L915.148 92.068C915.453 92.0964 915.735 92.0892 915.994 92.0463C916.251 92.0167 916.495 91.9122 916.726 91.7328C916.955 91.5667 917.163 91.2847 917.347 90.8868L922.491 80.0771L924.423 80.2569L918.712 91.7571C918.302 92.5625 917.828 93.1277 917.289 93.4524C916.75 93.7772 916.108 93.9049 915.365 93.8357C915.06 93.8073 914.776 93.7608 914.514 93.6963C914.251 93.645 913.997 93.5744 913.751 93.4846ZM926.922 90.312L925.05 90.1377L926.415 75.4811L928.287 75.6554L926.922 90.312ZM931.552 90.7229L929.68 90.5486L931.043 75.9119L932.914 76.0862L932.317 82.4985C932.672 81.9959 933.15 81.6118 933.75 81.3463C934.352 81.0676 935.031 80.9635 935.788 81.0339C937.023 81.1489 937.911 81.5999 938.454 82.3869C938.997 83.1739 939.21 84.1914 939.094 85.4393L938.54 91.3936L936.668 91.2193L937.183 85.6833C937.245 85.0195 937.195 84.4791 937.033 84.0623C936.885 83.6335 936.641 83.3094 936.3 83.0902C935.972 82.8722 935.576 82.7416 935.111 82.6983C934.514 82.6427 933.99 82.7278 933.54 82.9538C933.104 83.181 932.759 83.5104 932.504 83.942C932.25 84.3736 932.097 84.8682 932.045 85.4258L931.552 90.7229ZM945.312 92.2652C944.369 92.1774 943.553 91.8871 942.862 91.3943C942.173 90.8882 941.657 90.2376 941.316 89.4426C940.976 88.6343 940.853 87.7256 940.947 86.7167C941.043 85.6944 941.325 84.8168 941.795 84.0839C942.278 83.3522 942.892 82.8001 943.637 82.4275C944.394 82.0561 945.244 81.9143 946.187 82.0021C947.116 82.0886 947.901 82.3625 948.541 82.8239C949.194 83.2864 949.673 83.8934 949.978 84.645C950.297 85.3977 950.411 86.2586 950.32 87.2278L950.256 87.9248L941.91 87.1678L942.066 85.917L948.499 86.5158C948.574 85.706 948.389 85.0326 947.943 84.4957C947.498 83.9587 946.864 83.6519 946.041 83.5753C945.417 83.5172 944.866 83.6065 944.389 83.8433C943.926 84.068 943.55 84.4348 943.262 84.9436C942.988 85.4403 942.817 86.0538 942.749 86.784C942.64 87.9522 942.822 88.8797 943.293 89.5664C943.766 90.2398 944.501 90.6229 945.496 90.7156C946.226 90.7836 946.837 90.6932 947.329 90.4444C947.821 90.1955 948.173 89.7998 948.384 89.257L950.136 89.4202C949.801 90.4334 949.215 91.189 948.379 91.687C947.542 92.1849 946.52 92.3776 945.312 92.2652ZM951.699 82.7965L957.395 83.3268L957.248 84.9L951.553 84.3697L951.699 82.7965ZM954.576 92.8867L952.704 92.7124L953.895 79.9277L955.767 80.102L954.576 92.8867ZM965.883 93.9394L963.932 93.7577L965.272 79.36L967.224 79.5417L974.017 92.2261L973.48 92.176L974.592 80.2277L976.544 80.4094L975.203 94.8071L973.251 94.6254L966.458 81.941L966.996 81.9911L965.883 93.9394ZM981.063 95.5938C980.027 95.4973 979.236 95.1492 978.689 94.5492C978.156 93.9505 977.93 93.2131 978.012 92.3369C978.094 91.4474 978.479 90.7668 979.166 90.2951C979.854 89.8101 980.773 89.5743 981.923 89.5877L985.012 89.6342L985.038 89.3554C985.089 88.8111 985.03 88.3704 984.86 88.0332C984.692 87.6828 984.441 87.4251 984.109 87.2602C983.777 87.082 983.392 86.9726 982.954 86.9318C982.171 86.8588 981.545 86.9679 981.076 87.259C980.621 87.5381 980.366 87.9764 980.31 88.5738L978.677 88.4217C978.741 87.7447 978.968 87.17 979.36 86.6976C979.752 86.2253 980.273 85.8787 980.923 85.658C981.587 85.4386 982.336 85.3678 983.173 85.4457C983.983 85.5211 984.673 85.7326 985.243 86.0803C985.828 86.4159 986.259 86.8913 986.536 87.5063C986.828 88.1093 986.933 88.8489 986.852 89.7252L986.283 95.8387L984.69 95.6904L984.637 94.0986C984.333 94.6327 983.853 95.0367 983.198 95.3105C982.558 95.5723 981.846 95.6667 981.063 95.5938ZM981.736 94.1901C982.625 94.2729 983.347 94.0723 983.901 93.5882C984.456 93.0909 984.776 92.3842 984.862 91.4682L984.91 90.9504L982.402 90.9178C981.572 90.9208 980.956 91.0577 980.556 91.3284C980.169 91.6004 979.954 91.9753 979.909 92.4533C979.861 92.971 979.997 93.3787 980.317 93.6764C980.652 93.962 981.125 94.1332 981.736 94.1901ZM988.591 86.2313L994.286 86.7616L994.139 88.3348L988.444 87.8045L988.591 86.2313ZM991.468 96.3215L989.596 96.1472L990.786 83.3625L992.658 83.5367L991.468 96.3215ZM995.059 96.6559L995.966 86.918L997.838 87.0923L996.931 96.8301L995.059 96.6559ZM997.097 84.6932C996.765 84.6623 996.484 84.5157 996.254 84.2532C996.039 83.9787 995.946 83.6755 995.977 83.3436C996.009 82.9985 996.156 82.7175 996.417 82.5008C996.692 82.2853 996.995 82.193 997.327 82.2239C997.672 82.2561 997.953 82.4027 998.17 82.664C998.386 82.9252 998.479 83.2284 998.447 83.5735C998.416 83.9054 998.269 84.1864 998.007 84.4164C997.745 84.6331 997.442 84.7254 997.097 84.6932ZM999.466 92.1449C999.558 91.1492 999.86 90.2868 1000.37 89.5576C1000.88 88.8284 1001.53 88.2799 1002.33 87.9123C1003.14 87.5459 1004.04 87.4084 1005.02 87.4999C1006 87.5913 1006.85 87.8913 1007.57 88.3999C1008.28 88.9085 1008.82 89.5681 1009.19 90.3789C1009.56 91.1897 1009.69 92.093 1009.6 93.0887C1009.51 94.0844 1009.21 94.9468 1008.7 95.676C1008.19 96.4052 1007.53 96.9537 1006.74 97.3213C1005.94 97.689 1005.05 97.8271 1004.07 97.7356C1003.08 97.6441 1002.23 97.3435 1001.5 96.8337C1000.78 96.3251 1000.24 95.6655 999.876 94.8547C999.51 94.0439 999.373 93.1406 999.466 92.1449ZM1001.36 92.3211C1001.29 92.9981 1001.37 93.6079 1001.59 94.1504C1001.82 94.6941 1002.16 95.1343 1002.61 95.4708C1003.06 95.8074 1003.6 96.0047 1004.22 96.0628C1004.85 96.1209 1005.41 96.0262 1005.92 95.7786C1006.42 95.531 1006.83 95.1607 1007.14 94.6677C1007.47 94.1759 1007.67 93.5914 1007.73 92.9144C1007.79 92.224 1007.71 91.6136 1007.48 91.0832C1007.26 90.5407 1006.93 90.1012 1006.48 89.7646C1006.03 89.428 1005.49 89.2307 1004.86 89.1726C1004.24 89.1145 1003.68 89.2093 1003.17 89.4568C1002.67 89.7044 1002.25 90.0741 1001.92 90.5659C1001.61 91.0457 1001.42 91.6307 1001.36 92.3211ZM1013.09 98.3348L1011.22 98.1605L1012.13 88.4226L1013.82 88.5802L1013.88 90.0923C1014.24 89.5631 1014.71 89.1724 1015.31 88.9202C1015.93 88.656 1016.58 88.556 1017.27 88.6203C1018.54 88.739 1019.45 89.1918 1020 89.9788C1020.54 90.7659 1020.75 91.7834 1020.64 93.0313L1020.08 98.9856L1018.21 98.8113L1018.72 93.2752C1018.82 92.2928 1018.67 91.5694 1018.28 91.105C1017.9 90.6273 1017.35 90.3551 1016.63 90.2884C1015.76 90.2068 1015.05 90.4286 1014.5 90.9537C1013.97 91.4801 1013.66 92.2212 1013.57 93.1771L1013.09 98.3348ZM1025.5 99.731C1024.46 99.6346 1023.67 99.2865 1023.13 98.6865C1022.59 98.0878 1022.37 97.3504 1022.45 96.4742C1022.53 95.5847 1022.92 94.9041 1023.6 94.4324C1024.29 93.9474 1025.21 93.7116 1026.36 93.725L1029.45 93.7715L1029.48 93.4927C1029.53 92.9484 1029.47 92.5077 1029.3 92.1705C1029.13 91.8201 1028.88 91.5624 1028.55 91.3975C1028.21 91.2193 1027.83 91.1098 1027.39 91.0691C1026.61 90.9961 1025.98 91.1052 1025.51 91.3963C1025.06 91.6754 1024.8 92.1136 1024.75 92.7111L1023.11 92.559C1023.18 91.882 1023.4 91.3072 1023.8 90.8349C1024.19 90.3625 1024.71 90.016 1025.36 89.7953C1026.02 89.5759 1026.77 89.5051 1027.61 89.5829C1028.42 89.6583 1029.11 89.8699 1029.68 90.2176C1030.26 90.5532 1030.7 91.0286 1030.97 91.6436C1031.26 92.2466 1031.37 92.9862 1031.29 93.8624L1030.72 99.976L1029.13 99.8277L1029.07 98.2359C1028.77 98.77 1028.29 99.174 1027.64 99.4478C1026.99 99.7096 1026.28 99.804 1025.5 99.731ZM1026.17 98.3274C1027.06 98.4102 1027.78 98.2096 1028.34 97.7255C1028.89 97.2282 1029.21 96.5215 1029.3 95.6054L1029.35 95.0877L1026.84 95.0551C1026.01 95.0581 1025.39 95.195 1024.99 95.4657C1024.61 95.7377 1024.39 96.1126 1024.35 96.5906C1024.3 97.1083 1024.43 97.516 1024.75 97.8137C1025.09 98.0993 1025.56 98.2705 1026.17 98.3274ZM1035.22 100.395L1033.35 100.221L1034.72 85.5645L1036.59 85.7387L1035.22 100.395ZM1045.69 101.37L1043.74 101.189L1045.08 86.7908L1047.03 86.9725L1046.46 93.1657L1053.59 93.8295L1054.16 87.6363L1056.12 87.818L1054.78 102.216L1052.82 102.034L1053.42 95.6417L1046.29 94.9779L1045.69 101.37ZM1057.8 102.497L1058.7 92.7591L1060.57 92.9333L1059.67 102.671L1057.8 102.497ZM1059.83 90.5343C1059.5 90.5034 1059.22 90.3568 1058.99 90.0943C1058.78 89.8198 1058.68 89.5166 1058.71 89.1847C1058.75 88.8395 1058.89 88.5586 1059.15 88.3419C1059.43 88.1264 1059.73 88.0341 1060.06 88.065C1060.41 88.0971 1060.69 88.2438 1060.91 88.505C1061.12 88.7663 1061.22 89.0694 1061.18 89.4146C1061.15 89.7465 1061.01 90.0275 1060.74 90.2575C1060.48 90.4742 1060.18 90.5665 1059.83 90.5343ZM1062.24 97.7489C1062.33 96.8329 1062.59 96.0271 1063.03 95.3315C1063.47 94.6227 1064.06 94.0813 1064.79 93.7075C1065.52 93.3337 1066.36 93.1906 1067.3 93.2784C1068.18 93.36 1068.91 93.6422 1069.49 94.1251C1070.08 94.5948 1070.47 95.2137 1070.66 95.9819L1070.4 96.2185L1070.82 93.8872L1072.49 94.0429L1071.62 103.383C1071.53 104.405 1071.25 105.269 1070.78 105.975C1070.31 106.695 1069.69 107.227 1068.92 107.57C1068.15 107.914 1067.27 108.039 1066.28 107.947C1064.95 107.823 1063.89 107.37 1063.11 106.587C1062.32 105.804 1061.9 104.787 1061.83 103.535L1063.7 103.709C1063.75 104.437 1064.02 105.025 1064.5 105.471C1064.98 105.918 1065.62 106.179 1066.43 106.254C1067.35 106.339 1068.11 106.128 1068.7 105.621C1069.31 105.129 1069.66 104.418 1069.74 103.489L1070 100.741L1070.22 101.022C1069.9 101.729 1069.38 102.263 1068.68 102.627C1067.98 102.976 1067.19 103.11 1066.31 103.029C1065.38 102.942 1064.6 102.655 1063.96 102.167C1063.33 101.666 1062.86 101.033 1062.55 100.268C1062.26 99.5047 1062.16 98.6649 1062.24 97.7489ZM1064.12 97.8834C1064.06 98.4941 1064.13 99.0561 1064.32 99.5696C1064.53 100.084 1064.84 100.508 1065.25 100.841C1065.67 101.175 1066.19 101.37 1066.78 101.425C1067.42 101.485 1067.98 101.396 1068.45 101.159C1068.93 100.923 1069.31 100.57 1069.6 100.101C1069.9 99.633 1070.07 99.0805 1070.13 98.4433C1070.19 97.806 1070.13 97.2373 1069.93 96.7372C1069.74 96.237 1069.43 95.8265 1069 95.5056C1068.58 95.1848 1068.04 94.9948 1067.41 94.9354C1066.78 94.8773 1066.23 94.9733 1065.75 95.2233C1065.29 95.4746 1064.91 95.8347 1064.63 96.3037C1064.35 96.7594 1064.18 97.2859 1064.12 97.8834ZM1076.16 104.187L1074.29 104.012L1075.65 89.3757L1077.52 89.55L1076.93 95.9623C1077.28 95.4597 1077.76 95.0756 1078.36 94.8102C1078.96 94.5314 1079.64 94.4273 1080.4 94.4977C1081.63 94.6127 1082.52 95.0637 1083.06 95.8507C1083.61 96.6377 1083.82 97.6552 1083.7 98.9032L1083.15 104.857L1081.28 104.683L1081.79 99.1471C1081.85 98.4833 1081.8 97.943 1081.64 97.5262C1081.49 97.0973 1081.25 96.7732 1080.91 96.554C1080.58 96.336 1080.18 96.2054 1079.72 96.1621C1079.12 96.1065 1078.6 96.1917 1078.15 96.4176C1077.71 96.6448 1077.37 96.9742 1077.11 97.4058C1076.86 97.8374 1076.71 98.332 1076.65 98.8896L1076.16 104.187ZM1087.7 105.281L1085.42 95.2463L1087.35 95.4261L1088.49 100.634C1088.58 101.004 1088.65 101.386 1088.71 101.779C1088.76 102.16 1088.82 102.567 1088.87 103C1088.95 102.713 1089.04 102.44 1089.13 102.18C1089.24 101.909 1089.34 101.658 1089.44 101.426C1089.54 101.181 1089.64 100.956 1089.72 100.749L1091.83 95.8433L1093.74 96.0213L1094.88 101.23C1094.92 101.354 1094.96 101.518 1094.98 101.72C1095.01 101.911 1095.05 102.116 1095.1 102.335C1095.15 102.553 1095.19 102.771 1095.22 102.989C1095.25 103.206 1095.28 103.409 1095.3 103.599C1095.38 103.338 1095.46 103.091 1095.53 102.857C1095.62 102.611 1095.71 102.372 1095.8 102.139C1095.91 101.894 1096.02 101.63 1096.14 101.346L1098.24 96.4403L1100.19 96.622L1095.96 106.05L1094.19 105.885L1092.98 100.51C1092.87 100.004 1092.77 99.5603 1092.7 99.1787C1092.65 98.7851 1092.6 98.453 1092.58 98.1826C1092.5 98.4166 1092.39 98.7079 1092.25 99.0564C1092.13 99.3929 1091.95 99.8452 1091.72 100.413L1089.55 105.453L1087.7 105.281ZM1103.27 106.972C1102.23 106.875 1101.44 106.527 1100.9 105.927C1100.36 105.329 1100.14 104.591 1100.22 103.715C1100.3 102.825 1100.69 102.145 1101.37 101.673C1102.06 101.188 1102.98 100.952 1104.13 100.966L1107.22 101.012L1107.24 100.733C1107.29 100.189 1107.24 99.7484 1107.07 99.4112C1106.9 99.0608 1106.65 98.8031 1106.31 98.6382C1105.98 98.46 1105.6 98.3505 1105.16 98.3098C1104.38 98.2368 1103.75 98.3459 1103.28 98.637C1102.83 98.9161 1102.57 99.3543 1102.52 99.9518L1100.88 99.7997C1100.95 99.1226 1101.17 98.5479 1101.57 98.0756C1101.96 97.6032 1102.48 97.2567 1103.13 97.036C1103.79 96.8166 1104.54 96.7458 1105.38 96.8236C1106.19 96.899 1106.88 97.1106 1107.45 97.4583C1108.03 97.7939 1108.46 98.2693 1108.74 98.8843C1109.03 99.4873 1109.14 100.227 1109.06 101.103L1108.49 107.217L1106.9 107.068L1106.84 105.477C1106.54 106.011 1106.06 106.415 1105.4 106.688C1104.76 106.95 1104.05 107.045 1103.27 106.972ZM1103.94 105.568C1104.83 105.651 1105.55 105.45 1106.11 104.966C1106.66 104.469 1106.98 103.762 1107.07 102.846L1107.12 102.328L1104.61 102.296C1103.78 102.299 1103.16 102.436 1102.76 102.706C1102.38 102.978 1102.16 103.353 1102.11 103.831C1102.07 104.349 1102.2 104.757 1102.52 105.054C1102.86 105.34 1103.33 105.511 1103.94 105.568ZM1112.53 97.7708L1115.07 107.569L1113.77 109.054L1110.56 97.5872L1112.53 97.7708ZM1109.51 111.71L1109.65 110.177L1110.9 110.294C1111.21 110.322 1111.49 110.315 1111.75 110.272C1112.01 110.242 1112.25 110.138 1112.48 109.959C1112.71 109.793 1112.92 109.51 1113.1 109.113L1118.25 98.3029L1120.18 98.4827L1114.47 109.983C1114.06 110.788 1113.58 111.353 1113.04 111.678C1112.5 112.003 1111.86 112.131 1111.12 112.061C1110.81 112.033 1110.53 111.987 1110.27 111.922C1110.01 111.871 1109.75 111.8 1109.51 111.71ZM1130.09 112.703L1128.54 112.558C1128 111.745 1127.55 110.819 1127.19 109.781C1126.83 108.744 1126.57 107.642 1126.41 106.475C1126.27 105.297 1126.25 104.11 1126.36 102.915C1126.47 101.787 1126.69 100.669 1127.04 99.5632C1127.38 98.457 1127.83 97.4138 1128.37 96.4336C1128.92 95.4534 1129.55 94.5953 1130.28 93.8593L1131.83 94.0039C1131.25 94.6726 1130.7 95.4856 1130.2 96.443C1129.7 97.3871 1129.28 98.4262 1128.95 99.5601C1128.61 100.681 1128.39 101.859 1128.27 103.093C1128.17 104.261 1128.16 105.426 1128.27 106.588C1128.38 107.749 1128.58 108.847 1128.89 109.879C1129.21 110.927 1129.61 111.868 1130.09 112.703ZM1134.04 109.596L1132.09 109.414L1133.43 95.0165L1135.38 95.1982L1142.18 107.883L1141.64 107.833L1142.75 95.8842L1144.7 96.0659L1143.36 110.464L1141.41 110.282L1134.62 97.5975L1135.16 97.6476L1134.04 109.596ZM1155.68 111.59L1145.96 110.705L1146.1 109.212L1151.11 105.641C1151.74 105.204 1152.27 104.805 1152.69 104.442C1153.11 104.08 1153.45 103.743 1153.71 103.432C1153.96 103.108 1154.16 102.784 1154.28 102.461C1154.4 102.138 1154.48 101.784 1154.52 101.399C1154.6 100.496 1154.42 99.7695 1153.98 99.2193C1153.55 98.6571 1152.9 98.3351 1152.02 98.2536C1151.13 98.1708 1150.38 98.4094 1149.78 98.9694C1149.2 99.5173 1148.85 100.302 1148.74 101.323L1146.79 101.141C1146.91 100.121 1147.21 99.2456 1147.7 98.514C1148.18 97.7823 1148.81 97.2446 1149.57 96.9011C1150.36 96.5455 1151.23 96.4128 1152.2 96.503C1153.17 96.5932 1153.99 96.857 1154.66 97.2942C1155.33 97.7314 1155.82 98.3065 1156.15 99.0194C1156.48 99.7203 1156.61 100.535 1156.52 101.465C1156.47 101.969 1156.36 102.448 1156.19 102.9C1156.01 103.339 1155.76 103.771 1155.42 104.195C1155.1 104.607 1154.7 105.031 1154.2 105.467C1153.71 105.889 1153.11 106.35 1152.42 106.848L1148.36 109.764L1147.76 109.025L1155.85 109.778L1155.68 111.59ZM1157.75 115.278L1156.18 115.132C1156.82 114.402 1157.39 113.55 1157.88 112.579C1158.37 111.62 1158.78 110.58 1159.09 109.458C1159.41 108.336 1159.63 107.191 1159.74 106.022C1159.85 104.788 1159.85 103.589 1159.73 102.426C1159.61 101.25 1159.39 100.152 1159.07 99.1312C1158.77 98.0984 1158.38 97.1988 1157.92 96.4325L1159.49 96.579C1160.07 97.4361 1160.53 98.3962 1160.87 99.4592C1161.23 100.523 1161.47 101.631 1161.6 102.782C1161.74 103.932 1161.75 105.072 1161.65 106.2C1161.54 107.395 1161.3 108.558 1160.94 109.69C1160.58 110.808 1160.13 111.844 1159.59 112.798C1159.04 113.751 1158.43 114.578 1157.75 115.278Z" fill="#2A66C0"/>
</svg>
