<svg width="20" height="20" viewBox="0 0 20 20" fill="none" xmlns="http://www.w3.org/2000/svg">
<path d="M10 18.3333C9.31817 18.3333 8.66683 18.0538 7.36411 17.4949C4.12137 16.1036 2.5 15.4079 2.5 14.2378V6.45625M10 18.3333C10.6818 18.3333 11.3332 18.0538 12.6359 17.4949C15.8787 16.1036 17.5 15.4079 17.5 14.2378V6.45625M10 18.3333V10.1423M2.5 6.45625C2.5 6.95938 3.16797 7.27708 4.50393 7.9125L6.93827 9.07033C8.44067 9.78492 9.19192 10.1423 10 10.1423M2.5 6.45625C2.5 5.95313 3.16797 5.63542 4.50393 5M17.5 6.45625C17.5 6.95938 16.832 7.27708 15.4961 7.9125L13.0617 9.07033C11.5593 9.78492 10.8081 10.1423 10 10.1423M17.5 6.45625C17.5 5.95313 16.832 5.63542 15.4961 5M5.27669 11.0925L6.93826 11.8828" stroke="white" stroke-width="1.5" stroke-linecap="round" stroke-linejoin="round"/>
<path d="M10.0003 1.66663V3.33329M13.3337 2.49996L12.0837 4.16663M6.66699 2.49996L7.91699 4.16663" stroke="white" stroke-width="1.5" stroke-linecap="round"/>
</svg>
